<?xml version="1.0" standalone="no"?>
<!DOCTYPE svg PUBLIC "-//W3C//DTD SVG 20010904//EN"
 "http://www.w3.org/TR/2001/REC-SVG-20010904/DTD/svg10.dtd">
<svg version="1.0" xmlns="http://www.w3.org/2000/svg"
 width="50px" height="75px" viewBox="0 0 500.000000 500.000000"
 preserveAspectRatio="xMidYMid meet">

<g transform="translate(0.000000,500.000000) scale(0.100000,-0.100000)"
fill="#343a40" stroke="none">
<path d="M1097 4864 c-4 -4 -7 -598 -7 -1321 l0 -1313 70 0 70 0 0 1252 0
1251 1250 -5 1250 -6 0 69 0 69 -1299 0 c-715 0 -1306 2 -1313 5 -8 3 -17 2
-21 -1z"/>
<path d="M1440 3315 l0 -1195 490 0 490 0 0 230 0 230 -250 0 -250 0 0 275 0
275 225 0 225 0 0 225 0 225 -225 0 -225 0 0 235 0 235 235 0 235 0 0 230 0
230 -475 0 -475 0 0 -1195z"/>
<path d="M2590 3315 l0 -1195 235 0 235 0 0 475 0 475 143 0 c212 0 313 32
399 128 108 120 155 328 145 645 -6 188 -29 310 -82 421 -34 72 -110 154 -174
189 -92 50 -152 57 -543 57 l-358 0 0 -1195z m618 738 c56 -41 76 -132 70
-309 -5 -138 -21 -184 -77 -221 -25 -17 -49 -23 -87 -23 l-54 0 0 291 0 291
60 -4 c39 -3 70 -11 88 -25z"/>
<path d="M3890 1610 l0 -1250 -1250 0 -1251 0 3 -67 3 -68 1318 -3 1317 -2 0
1320 0 1320 -70 0 -70 0 0 -1250z"/>
<path d="M1732 1959 c-156 -26 -242 -144 -242 -329 l0 -50 129 0 129 0 7 59
c4 33 12 66 18 75 20 26 61 29 88 7 22 -17 24 -27 24 -95 0 -68 -3 -78 -26
-102 -16 -16 -41 -28 -67 -31 l-42 -6 0 -113 0 -114 35 0 c76 0 110 -75 103
-227 -5 -110 -20 -136 -77 -131 -52 4 -71 47 -71 161 l0 87 -130 0 -130 0 0
-67 c2 -300 91 -414 324 -414 125 0 186 20 246 80 30 30 56 69 71 107 21 54
24 74 24 224 0 158 -1 167 -25 210 -14 24 -40 54 -58 66 l-32 22 36 23 c47 29
74 90 81 184 10 130 -22 239 -89 301 -44 42 -81 60 -153 73 -66 12 -97 12
-173 0z"/>
<path d="M2455 1957 c-152 -51 -198 -136 -215 -397 -21 -319 -8 -621 30 -723
26 -70 91 -131 163 -152 65 -19 209 -19 273 0 135 40 203 179 204 411 0 166
-25 257 -87 316 -71 68 -227 74 -290 12 -13 -13 -26 -24 -29 -24 -3 0 -4 70
-2 156 3 150 4 157 27 175 13 10 36 19 51 19 42 0 62 -30 67 -105 l6 -65 118
0 119 0 0 102 c0 83 -4 110 -21 145 -24 50 -67 88 -129 116 -57 26 -225 34
-285 14z m153 -725 c42 -27 43 -296 1 -323 -25 -15 -65 -10 -85 12 -15 17 -20
40 -22 121 -4 113 2 161 24 183 17 16 61 20 82 7z"/>
<path d="M3185 1956 c-104 -33 -164 -93 -196 -196 -19 -63 -20 -90 -17 -466 3
-396 3 -399 27 -452 32 -71 107 -137 179 -158 85 -25 232 -16 297 18 80 42
127 101 151 190 19 74 20 756 0 839 -27 116 -96 193 -199 224 -61 18 -187 18
-242 1z m152 -224 c29 -18 33 -70 33 -421 0 -347 -1 -359 -21 -385 -26 -33
-71 -35 -93 -4 -14 19 -16 74 -16 398 0 324 2 379 16 398 15 22 57 29 81 14z"/>
</g>
</svg>
